<?xml version="1.0" encoding="UTF-8" standalone="no"?>
<svg
   xmlns:dc="http://purl.org/dc/elements/1.1/"
   xmlns:cc="http://creativecommons.org/ns#"
   xmlns:rdf="http://www.w3.org/1999/02/22-rdf-syntax-ns#"
   xmlns:svg="http://www.w3.org/2000/svg"
   xmlns="http://www.w3.org/2000/svg"
   xmlns:sodipodi="http://sodipodi.sourceforge.net/DTD/sodipodi-0.dtd"
   xmlns:inkscape="http://www.inkscape.org/namespaces/inkscape"
   viewBox="0 0 763.84497 763.841"
   version="1.1"
   id="svg3771"
   sodipodi:docname="Instagram.svg"
   width="763.84497"
   height="763.841"
   inkscape:version="0.92.3 (2405546, 2018-03-11)">
  <metadata
     id="metadata3777">
    <rdf:RDF>
      <cc:Work
         rdf:about="">
        <dc:format>image/svg+xml</dc:format>
        <dc:type
           rdf:resource="http://purl.org/dc/dcmitype/StillImage" />
        <dc:title />
      </cc:Work>
    </rdf:RDF>
  </metadata>
  <defs
     id="defs3775" />
  <sodipodi:namedview
     pagecolor="#ffffff"
     bordercolor="#666666"
     borderopacity="1"
     objecttolerance="10"
     gridtolerance="10"
     guidetolerance="10"
     inkscape:pageopacity="0"
     inkscape:pageshadow="2"
     inkscape:window-width="1920"
     inkscape:window-height="1015"
     id="namedview3773"
     showgrid="false"
     fit-margin-top="130"
     fit-margin-left="130"
     fit-margin-right="130"
     fit-margin-bottom="130"
     inkscape:zoom="0.80761718"
     inkscape:cx="72.801817"
     inkscape:cy="418.31832"
     inkscape:window-x="0"
     inkscape:window-y="0"
     inkscape:window-maximized="1"
     inkscape:current-layer="svg3771" />
  <g
     inkscape:groupmode="layer"
     id="layer2"
     inkscape:label="Layer 1"
     transform="translate(10,10)">
    <rect
       style="fill:#e21081;fill-opacity:1;stroke-width:0.79182214"
       id="rect4585"
       width="785.91827"
       height="791.99036"
       x="-23.335442"
       y="-15.95586" />
  </g>
  <path
     style="fill:#ffffff;fill-opacity:1"
     d="m 381.921,175.392 c 67.266,0 75.233,0.257 101.8,1.469 24.562,1.121 37.9,5.224 46.778,8.674 a 78.052,78.052 0 0 1 28.966,18.845 78.052,78.052 0 0 1 18.845,28.96601 c 3.45,8.877 7.554,22.216 8.674,46.778 1.212,26.565 1.469,34.532 1.469,101.8 0,67.268 -0.257,75.233 -1.469,101.8 -1.121,24.562 -5.225,37.9 -8.674,46.778 a 83.427,83.427 0 0 1 -47.811,47.811 c -8.877,3.45 -22.216,7.554 -46.778,8.674 -26.56,1.212 -34.527,1.469 -101.8,1.469 -67.273,0 -75.237,-0.257 -101.8,-1.469 -24.562,-1.121 -37.9,-5.225 -46.778,-8.674 a 78.051,78.051 0 0 1 -28.966,-18.845 78.053,78.053 0 0 1 -18.845,-28.966 c -3.45,-8.877 -7.554,-22.216 -8.674,-46.778 -1.212,-26.564 -1.469,-34.532 -1.469,-101.8 0,-67.268 0.257,-75.233 1.469,-101.8 1.121,-24.562 5.224,-37.9 8.674,-46.778 a 78.052,78.052 0 0 1 18.847,-28.96701 78.053,78.053 0 0 1 28.966,-18.845 c 8.877,-3.45 22.216,-7.554 46.778,-8.674 26.565,-1.212 34.532,-1.469 101.8,-1.469 m 0,-45.391 c -68.418,0 -77,0.29 -103.866,1.516 -26.815,1.224 -45.127,5.482 -61.151,11.71 a 123.488,123.488 0 0 0 -44.62,29.057 123.488,123.488 0 0 0 -29.065,44.62 c -6.223,16.02501 -10.481,34.33701 -11.7,61.15201 -1.231,26.866 -1.521,35.448 -1.521,103.866 0,68.418 0.29,77 1.521,103.866 1.224,26.815 5.482,45.127 11.71,61.151 a 123.489,123.489 0 0 0 29.057,44.62 123.486,123.486 0 0 0 44.62,29.057 c 16.025,6.228 34.337,10.486 61.151,11.71 26.87,1.226 35.449,1.516 103.866,1.516 68.417,0 77,-0.29 103.866,-1.516 26.815,-1.224 45.127,-5.482 61.151,-11.71 a 128.817,128.817 0 0 0 73.677,-73.677 c 6.228,-16.025 10.486,-34.337 11.71,-61.151 1.226,-26.87 1.516,-35.449 1.516,-103.866 0,-68.417 -0.29,-77 -1.516,-103.866 -1.224,-26.815 -5.482,-45.127 -11.71,-61.15101 a 123.486,123.486 0 0 0 -29.057,-44.62 123.487,123.487 0 0 0 -44.623,-29.063 C 530.914,136.998 512.602,132.74 485.787,131.521 458.921,130.29 450.339,130 381.921,130 v 0 z"
     id="path3765"
     inkscape:connector-curvature="0" />
  <path
     style="fill:#ffffff;fill-opacity:1"
     d="M 381.921,252.556 A 129.365,129.365 0 1 0 511.286,381.921 129.365,129.365 0 0 0 381.921,252.556 Z m 0,213.338 a 83.973,83.973 0 1 1 83.974,-83.973 83.974,83.974 0 0 1 -83.974,83.973 z"
     id="path3767"
     inkscape:connector-curvature="0" />
  <circle
     style="fill:#ffffff;fill-opacity:1"
     cx="516.39697"
     cy="247.44499"
     r="30.23"
     id="circle3769" />
</svg>
